<?xml version="1.0" encoding="UTF-8" standalone="no"?>
<!DOCTYPE svg PUBLIC "-//W3C//DTD SVG 1.1//EN" "http://www.w3.org/Graphics/SVG/1.1/DTD/svg11.dtd">
<svg xmlns="http://www.w3.org/2000/svg" version="1.1" viewBox="0.00 0.00 291.00 39.00">
<ellipse fill="#777777" cx="0.00" cy="0.00" transform="translate(274.81,6.36) rotate(99.2)" rx="3.92" ry="1.49"/>
<ellipse fill="#777777" cx="0.00" cy="0.00" transform="translate(264.86,6.92) rotate(64.3)" rx="3.79" ry="1.36"/>
<path fill="#777777" d="
  M 113.4117 14.0227
  C 116.57 20.27 113.77 28.03 107.1726 31.3691
  C 100.57 34.70 92.66 32.34 89.5083 26.0973
  C 86.35 19.85 89.15 12.09 95.7474 8.7509
  C 102.35 5.42 110.26 7.78 113.4117 14.0227
  Z
  M 98.8414 28.8803
  C 103.53 30.27 108.50 27.44 109.9456 22.5535
  C 111.39 17.67 108.77 12.59 104.0786 11.1997
  C 99.39 9.81 94.42 12.64 92.9744 17.5265
  C 91.53 22.41 94.15 27.49 98.8414 28.8803
  Z"
/>
<path fill="#777777" d="
  M 120.95 18.61
  C 118.86 27.08 126.61 30.18 133.46 28.77
  C 134.09 28.64 134.58 28.13 134.68 27.49
  C 135.03 25.41 134.73 23.45 133.78 21.61
  C 133.62 21.29 133.68 21.02 133.95 20.79
  C 135.12 19.83 137.37 19.18 138.35 20.82
  C 139.92 23.44 138.50 28.57 137.28 30.86
  C 137.14 31.13 136.91 31.33 136.64 31.45
  C 131.84 33.56 126.99 33.38 122.09 30.91
  C 116.18 27.92 114.47 20.67 117.98 15.02
  C 121.21 9.83 126.12 7.33 132.73 7.52
  C 134.11 7.56 134.86 8.27 134.97 9.64
  C 134.98 9.71 134.99 9.82 135.00 9.95
  C 135.11 11.32 134.49 11.94 133.12 11.81
  C 131.08 11.62 129.36 11.66 127.96 11.93
  C 124.21 12.65 121.88 14.88 120.95 18.61
  Z"
/>
<path fill="#777777" d="
  M 202.51 27.92
  C 202.80 25.80 202.67 23.92 202.13 22.27
  C 201.74 21.06 202.16 20.31 203.41 20.03
  L 204.12 19.87
  C 205.69 19.52 206.56 20.15 206.71 21.76
  C 207.00 24.91 207.15 30.69 203.33 31.99
  C 199.00 33.46 194.66 33.15 190.29 31.05
  C 181.74 26.92 182.89 15.86 189.58 10.82
  C 193.04 8.21 196.92 7.16 201.21 7.65
  C 202.16 7.76 202.69 8.29 202.80 9.24
  C 202.87 9.83 202.82 10.44 202.63 11.07
  C 202.44 11.74 202.00 12.00 201.32 11.85
  C 193.26 10.15 186.49 16.23 189.25 24.23
  C 190.91 29.04 197.68 29.96 201.97 28.56
  C 202.28 28.46 202.46 28.25 202.51 27.92
  Z"
/>
<path fill="#777777" d="
  M 26.61 17.20
  C 26.56 15.91 26.23 15.84 25.62 16.97
  C 23.60 20.74 21.64 24.64 19.73 28.68
  C 19.36 29.47 18.90 30.19 18.37 30.86
  C 17.69 31.70 16.37 31.55 15.89 30.59
  L 9.07 17.03
  C 8.51 15.91 8.20 15.98 8.13 17.23
  L 7.48 30.31
  C 7.41 31.73 6.66 32.35 5.25 32.17
  C 4.94 32.13 4.63 32.09 4.31 32.05
  C 2.93 31.88 2.45 31.13 2.88 29.80
  C 4.94 23.45 5.58 16.76 4.79 9.73
  C 4.73 9.20 4.95 8.67 5.38 8.35
  C 7.76 6.50 9.88 10.36 10.71 11.96
  C 12.84 16.11 14.94 20.25 17.03 24.39
  C 17.39 25.10 17.75 25.10 18.12 24.39
  C 20.51 19.74 22.81 15.18 25.02 10.71
  C 25.60 9.56 26.45 8.65 27.56 7.98
  C 27.87 7.80 28.19 7.75 28.53 7.83
  C 29.37 8.02 30.06 8.49 30.59 9.22
  C 30.73 9.41 30.77 9.67 30.68 9.89
  C 30.27 10.94 30.06 12.08 30.06 13.30
  C 30.04 19.63 30.80 25.20 32.35 30.00
  C 32.78 31.34 32.30 32.03 30.90 32.08
  C 30.41 32.10 29.91 32.12 29.41 32.13
  C 28.20 32.17 27.19 31.23 27.14 30.02
  L 26.61 17.20
  Z"
/>
<path fill="#777777" d="
  M 49.90 10.45
  C 49.68 11.03 49.35 11.50 48.90 11.85
  C 48.68 12.02 48.39 12.08 48.12 12.03
  C 45.53 11.49 42.99 11.36 40.50 11.63
  C 40.30 11.65 40.15 11.82 40.14 12.02
  L 40.06 17.52
  C 40.05 17.74 40.23 17.93 40.45 17.94
  C 42.90 18.10 45.23 18.01 47.44 17.66
  C 48.14 17.55 48.76 18.14 48.67 18.85
  L 48.51 20.12
  C 48.43 20.79 48.05 21.13 47.38 21.12
  L 40.35 21.05
  C 40.17 21.05 40.08 21.14 40.08 21.31
  L 39.90 28.48
  C 39.89 28.65 39.97 28.74 40.13 28.77
  C 42.58 29.22 45.09 29.01 47.67 28.14
  C 48.32 27.92 49.00 28.40 49.00 29.09
  L 49.02 31.11
  C 49.03 31.74 48.51 32.26 47.88 32.26
  L 37.56 32.25
  C 36.35 32.25 35.78 31.64 35.85 30.43
  C 36.32 22.92 36.30 15.68 35.79 8.71
  C 35.76 8.33 36.06 8.01 36.44 8.01
  C 39.95 8.04 43.54 7.95 47.23 7.75
  C 48.32 7.69 49.19 8.05 49.86 8.83
  C 50.14 9.15 50.43 9.16 50.73 8.86
  L 51.14 8.47
  C 51.49 8.12 51.97 7.94 52.47 7.97
  C 57.74 8.35 63.22 8.93 68.51 7.81
  C 69.78 7.54 70.42 8.06 70.41 9.38
  C 70.41 9.39 70.41 9.54 70.41 9.84
  C 70.41 11.34 69.66 12.06 68.17 12.00
  L 62.98 11.81
  C 62.52 11.79 62.13 12.15 62.11 12.61
  C 61.94 18.45 61.37 24.88 62.97 30.31
  C 63.18 31.04 62.94 31.54 62.23 31.81
  C 60.68 32.42 57.83 32.75 57.89 30.30
  C 58.00 25.85 58.08 21.47 58.15 17.15
  C 58.18 15.52 58.13 13.86 58.02 12.19
  C 57.99 11.80 57.79 11.63 57.40 11.67
  L 51.31 12.28
  C 51.02 12.31 50.80 12.19 50.66 11.93
  C 50.42 11.48 50.27 11.00 50.22 10.49
  C 50.17 10.02 50.06 10.00 49.90 10.45
  Z"
/>
<path fill="#777777" d="
  M 77.42 17.93
  C 79.86 18.14 82.09 18.04 84.12 17.63
  C 85.11 17.44 85.62 17.85 85.65 18.86
  L 85.66 19.69
  C 85.69 20.68 85.21 21.16 84.22 21.14
  L 77.31 21.03
  C 77.14 21.03 77.05 21.11 77.05 21.28
  L 76.92 28.49
  C 76.91 28.68 77.00 28.78 77.18 28.81
  C 79.81 29.19 82.27 28.99 84.56 28.20
  C 85.11 28.01 85.51 28.17 85.78 28.69
  C 86.89 30.89 85.99 32.24 83.51 32.25
  C 80.28 32.26 77.22 32.26 74.31 32.23
  C 73.46 32.22 72.79 31.50 72.85 30.65
  C 73.39 23.21 73.37 15.95 72.80 8.86
  C 72.76 8.44 73.09 8.07 73.52 8.06
  L 84.87 7.80
  C 86.16 7.77 86.85 8.40 86.95 9.69
  C 86.98 10.04 86.93 10.38 86.81 10.72
  C 86.43 11.79 85.69 12.20 84.58 11.96
  C 82.32 11.47 79.94 11.36 77.45 11.63
  C 77.18 11.66 77.05 11.81 77.05 12.08
  L 77.04 17.52
  C 77.04 17.77 77.17 17.91 77.42 17.93
  Z"
/>
<path fill="#777777" d="
  M 154.03 24.87
  L 147.16 24.85
  C 146.77 24.85 146.49 25.02 146.31 25.37
  C 145.31 27.30 144.66 29.11 144.35 30.81
  C 144.12 32.10 143.37 32.57 142.11 32.20
  L 141.59 32.04
  C 140.17 31.63 139.77 30.75 140.40 29.41
  C 142.97 23.92 145.65 18.31 148.42 12.60
  C 148.63 12.15 148.71 11.69 148.65 11.21
  C 148.61 10.90 148.47 10.65 148.24 10.45
  C 147.94 10.19 147.88 9.76 148.08 9.42
  C 149.61 6.86 151.72 7.69 152.72 10.00
  C 155.54 16.50 157.77 23.54 161.51 29.64
  C 162.18 30.74 161.92 31.51 160.71 31.96
  L 160.41 32.07
  C 159.19 32.53 158.23 32.21 157.52 31.12
  C 156.43 29.45 155.53 27.56 154.82 25.44
  C 154.71 25.10 154.39 24.87 154.03 24.87
  Z
  M 148.21 21.03
  C 148.11 21.24 148.26 21.48 148.49 21.49
  L 152.89 21.57
  C 153.12 21.58 153.28 21.34 153.19 21.13
  L 151.09 16.06
  C 150.98 15.80 150.62 15.79 150.50 16.05
  L 148.21 21.03
  Z"
/>
<path fill="#777777" d="
  M 168.83 24.00
  C 168.81 26.40 169.09 28.62 169.66 30.66
  C 169.78 31.07 169.65 31.38 169.27 31.58
  C 168.23 32.13 167.17 32.30 166.09 32.10
  C 165.19 31.93 164.55 31.12 164.61 30.20
  C 164.97 24.91 165.09 19.58 164.96 14.23
  C 164.91 12.43 164.60 10.69 164.01 9.01
  C 163.85 8.55 164.18 8.06 164.67 8.06
  C 166.55 8.03 168.49 7.93 170.50 7.78
  C 175.42 7.40 180.20 9.94 179.70 15.46
  C 179.44 18.27 178.18 20.35 175.91 21.71
  C 175.52 21.94 175.47 22.24 175.76 22.59
  C 178.03 25.27 180.32 27.45 182.64 29.14
  C 183.74 29.94 183.78 30.79 182.75 31.68
  L 182.40 31.98
  C 181.19 33.03 180.05 32.97 178.98 31.78
  C 177.06 29.66 175.19 27.57 173.37 25.52
  C 172.28 24.29 170.95 23.61 169.37 23.50
  C 169.01 23.47 168.83 23.64 168.83 24.00
  Z
  M 169.11 11.37
  L 168.76 20.10
  C 168.75 20.22 168.84 20.32 168.96 20.32
  L 170.67 20.39
  C 173.23 20.49 175.38 18.59 175.48 16.13
  L 175.49 15.87
  C 175.59 13.42 173.60 11.34 171.03 11.24
  L 169.33 11.17
  C 169.21 11.17 169.11 11.26 169.11 11.37
  Z"
/>
<path fill="#777777" d="
  M 216.48 11.04
  L 216.08 10.45
  C 215.82 10.07 215.82 9.69 216.08 9.31
  C 217.31 7.50 219.03 7.26 220.22 9.20
  C 220.74 10.05 221.17 10.91 221.50 11.76
  C 223.21 16.22 225.02 20.59 226.91 24.87
  C 227.63 26.51 228.49 28.14 229.48 29.75
  C 230.23 30.96 229.91 31.70 228.50 31.97
  C 228.41 31.99 228.24 32.02 227.99 32.07
  C 226.52 32.35 225.48 31.80 224.88 30.42
  L 222.69 25.39
  C 222.54 25.04 222.26 24.86 221.87 24.86
  L 214.85 24.87
  C 214.42 24.87 214.14 25.07 214.00 25.48
  L 212.06 31.38
  C 211.83 32.08 211.34 32.38 210.61 32.29
  C 210.14 32.22 209.70 32.10 209.27 31.91
  C 208.46 31.55 208.15 30.94 208.34 30.08
  C 208.61 28.83 208.91 27.88 209.24 27.23
  C 211.83 22.20 214.27 17.09 216.56 11.92
  C 216.69 11.61 216.67 11.32 216.48 11.04
  Z
  M 216.30 21.07
  C 216.22 21.28 216.37 21.50 216.60 21.51
  L 220.66 21.56
  C 220.89 21.57 221.04 21.35 220.97 21.14
  L 219.01 15.72
  C 218.91 15.44 218.52 15.43 218.41 15.71
  L 216.30 21.07
  Z"
/>
<path fill="#777777" d="
  M 237.29 16.36
  C 236.63 15.61 236.32 15.73 236.35 16.73
  L 236.74 30.01
  C 236.77 31.08 236.00 32.01 234.94 32.19
  C 233.94 32.35 233.01 32.16 232.16 31.62
  C 231.81 31.40 231.68 31.09 231.79 30.69
  C 232.11 29.48 232.66 28.38 232.76 27.13
  C 233.11 22.52 233.18 17.96 232.96 13.45
  C 232.91 12.29 232.41 11.31 231.60 10.51
  C 231.35 10.25 231.33 9.98 231.55 9.69
  C 232.04 9.06 232.55 8.60 233.08 8.31
  C 233.97 7.82 235.09 8.02 235.76 8.79
  L 249.47 24.54
  C 250.12 25.30 250.46 25.18 250.49 24.17
  C 250.57 20.94 250.54 17.59 250.40 14.10
  C 250.34 12.65 250.07 11.38 249.59 10.27
  C 249.14 9.23 249.45 8.52 250.51 8.14
  C 251.78 7.68 252.78 7.83 253.53 8.59
  C 253.91 8.98 254.09 9.80 254.08 11.05
  C 253.98 17.48 253.96 24.08 254.03 30.86
  C 254.03 31.16 253.89 31.45 253.65 31.63
  C 252.48 32.50 251.42 32.40 250.46 31.33
  C 246.17 26.54 241.78 21.55 237.29 16.36
  Z"
/>
<ellipse fill="#777777" cx="0.00" cy="0.00" transform="translate(283.59,11.26) rotate(-33.7)" rx="3.42" ry="1.31"/>
<ellipse fill="#777777" cx="0.00" cy="0.00" transform="translate(259.80,12.03) rotate(30.0)" rx="3.92" ry="1.29"/>
<path fill="#777777" d="
  M 272.66 20.04
  C 272.69 19.70 272.64 19.37 272.49 19.05
  C 272.10 18.19 272.65 17.20 273.59 17.07
  C 277.16 16.58 278.00 20.14 276.08 22.37
  C 274.62 24.07 270.80 24.72 269.52 22.26
  C 268.76 20.81 267.78 19.16 268.71 17.53
  C 271.03 13.48 275.77 10.48 279.94 13.93
  C 281.40 15.14 282.13 16.87 282.12 19.14
  C 282.10 25.03 277.54 27.26 272.43 28.46
  C 268.28 29.43 263.51 26.92 262.81 22.49
  C 261.96 17.06 264.15 13.03 269.38 10.40
  C 270.11 10.03 270.69 10.19 271.12 10.88
  C 271.54 11.53 271.45 12.37 270.84 13.39
  C 270.69 13.62 270.50 13.82 270.28 13.98
  C 267.27 16.06 264.52 20.56 267.53 23.83
  C 269.16 25.60 271.28 25.98 273.89 24.96
  C 277.16 23.69 278.87 21.19 279.02 17.48
  C 279.04 17.15 278.91 16.83 278.67 16.59
  C 277.02 15.00 275.09 14.89 272.89 16.27
  C 271.28 17.28 271.06 18.57 272.22 20.16
  C 272.47 20.51 272.62 20.47 272.66 20.04
  Z"
/>
<path fill="#777777" d="
  M 291.00 17.01
  L 291.00 19.05
  C 289.31 19.90 287.47 20.37 285.50 20.45
  C 284.53 20.49 283.85 20.23 283.48 19.66
  C 283.23 19.29 283.39 18.78 283.81 18.62
  C 286.52 17.56 288.92 17.02 291.00 17.01
  Z"
/>
<ellipse fill="#777777" cx="0.00" cy="0.00" transform="translate(258.22,19.16) rotate(0.4)" rx="3.70" ry="1.42"/>
<rect fill="#777777" x="-3.97" y="-1.22" transform="translate(285.72,25.96) rotate(30.5)" width="7.94" height="2.44" rx="1.16"/>
<ellipse fill="#777777" cx="0.00" cy="0.00" transform="translate(260.19,27.07) rotate(-32.9)" rx="3.19" ry="1.16"/>
<ellipse fill="#777777" cx="0.00" cy="0.00" transform="translate(280.18,31.58) rotate(59.3)" rx="4.25" ry="1.60"/>
<ellipse fill="#777777" cx="0.00" cy="0.00" transform="translate(266.14,32.42) rotate(117.0)" rx="3.74" ry="1.37"/>
<ellipse fill="#777777" cx="0.00" cy="0.00" transform="translate(273.30,33.71) rotate(90.5)" rx="3.90" ry="1.32"/>
</svg>
